<svg width="650" height="36" viewBox="0 0 650 36" fill="none" xmlns="http://www.w3.org/2000/svg">
<circle opacity="0.1" cx="16" cy="18" r="14" stroke="#EB5BE5" stroke-width="4"/>
<circle cx="16" cy="18" r="3" fill="#EB5BE5"/>
<path d="M48.12 14.06V12.02H58.52V14.06H53.97L54.5 13.52V25H52.14V13.52L52.67 14.06H48.12ZM58.3858 25V15.26H60.7458V25H58.3858ZM60.1658 20.74C60.1658 19.4667 60.3091 18.4133 60.5958 17.58C60.8824 16.7467 61.2658 16.13 61.7458 15.73C62.2324 15.3233 62.7724 15.12 63.3658 15.12C63.5258 15.12 63.6758 15.13 63.8158 15.15C63.9624 15.17 64.1058 15.2 64.2458 15.24L64.2058 17.6C64.0324 17.56 63.8458 17.5267 63.6458 17.5C63.4458 17.4733 63.2658 17.46 63.1058 17.46C62.5858 17.46 62.1491 17.5867 61.7958 17.84C61.4491 18.0867 61.1858 18.4533 61.0058 18.94C60.8324 19.4267 60.7458 20.0267 60.7458 20.74H60.1658ZM72.0173 25L71.7173 22.64V18.74C71.7173 18.06 71.5773 17.5567 71.2973 17.23C71.024 16.9033 70.5573 16.74 69.8973 16.74C69.5173 16.74 69.1873 16.7967 68.9073 16.91C68.6273 17.0233 68.4107 17.1867 68.2573 17.4C68.1107 17.6067 68.0373 17.86 68.0373 18.16H65.4573C65.4573 17.4267 65.634 16.83 65.9873 16.37C66.3407 15.9033 66.8473 15.5633 67.5073 15.35C68.174 15.13 68.9707 15.02 69.8973 15.02C70.7373 15.02 71.4707 15.1567 72.0973 15.43C72.724 15.6967 73.2107 16.11 73.5573 16.67C73.904 17.23 74.0773 17.9467 74.0773 18.82V25H72.0173ZM68.8373 25.28C68.004 25.28 67.3073 25.1367 66.7473 24.85C66.194 24.5567 65.7773 24.1733 65.4973 23.7C65.2173 23.2267 65.0773 22.7133 65.0773 22.16C65.0773 21.5467 65.2373 21.0333 65.5573 20.62C65.884 20.2 66.344 19.8867 66.9373 19.68C67.5307 19.4667 68.2307 19.36 69.0373 19.36C69.564 19.36 70.0607 19.4 70.5273 19.48C71.0007 19.56 71.4707 19.6667 71.9373 19.8V21.18C71.5707 21.06 71.1707 20.9667 70.7373 20.9C70.304 20.8333 69.8973 20.8 69.5173 20.8C68.9573 20.8 68.4973 20.9033 68.1373 21.11C67.7773 21.3167 67.5973 21.6667 67.5973 22.16C67.5973 22.52 67.744 22.83 68.0373 23.09C68.3307 23.35 68.7973 23.48 69.4373 23.48C69.924 23.48 70.3373 23.3733 70.6773 23.16C71.0173 22.9467 71.274 22.68 71.4473 22.36C71.6273 22.04 71.7173 21.72 71.7173 21.4H72.2773C72.2773 22.1 72.1473 22.7467 71.8873 23.34C71.6273 23.9267 71.2407 24.3967 70.7273 24.75C70.2207 25.1033 69.5907 25.28 68.8373 25.28ZM80.8166 25.28C80.0032 25.28 79.2466 25.07 78.5466 24.65C77.8532 24.2233 77.2899 23.6267 76.8566 22.86C76.4299 22.0867 76.2166 21.18 76.2166 20.14C76.2166 19.04 76.4299 18.11 76.8566 17.35C77.2899 16.5833 77.8532 16.0033 78.5466 15.61C79.2466 15.2167 80.0032 15.02 80.8166 15.02C81.4499 15.02 82.0066 15.1233 82.4866 15.33C82.9732 15.53 83.3866 15.8033 83.7266 16.15C84.0666 16.49 84.3332 16.87 84.5266 17.29C84.7199 17.71 84.8432 18.1333 84.8966 18.56L82.5166 18.62C82.4099 18.1933 82.2099 17.84 81.9166 17.56C81.6299 17.28 81.2566 17.14 80.7966 17.14C80.4166 17.14 80.0599 17.2467 79.7266 17.46C79.3932 17.6667 79.1199 17.99 78.9066 18.43C78.6999 18.87 78.5966 19.44 78.5966 20.14C78.5966 20.8067 78.6932 21.3633 78.8866 21.81C79.0866 22.25 79.3532 22.5833 79.6866 22.81C80.0199 23.03 80.3899 23.14 80.7966 23.14C81.3966 23.14 81.8332 22.9967 82.1066 22.71C82.3799 22.4167 82.5166 22.0267 82.5166 21.54H84.8966C84.8966 22.2267 84.7399 22.8533 84.4266 23.42C84.1132 23.9867 83.6532 24.44 83.0466 24.78C82.4399 25.1133 81.6966 25.28 80.8166 25.28ZM87.3225 25V11.28H89.6825V25H87.3225ZM89.3625 18.98L93.5225 15.3H96.7225L89.3625 21.42V18.98ZM94.0825 25L89.7425 18.82L91.9825 18.28L96.9625 25H94.0825ZM108.277 25.28C107.564 25.28 106.957 25.1267 106.457 24.82C105.957 24.5133 105.574 24.05 105.307 23.43C105.047 22.8033 104.917 22.02 104.917 21.08H105.777C105.777 21.5133 105.877 21.8833 106.077 22.19C106.277 22.4967 106.54 22.7333 106.867 22.9C107.2 23.06 107.557 23.14 107.937 23.14C108.33 23.14 108.717 23.0333 109.097 22.82C109.484 22.6 109.804 22.27 110.057 21.83C110.31 21.3833 110.437 20.82 110.437 20.14C110.437 19.52 110.33 18.9867 110.117 18.54C109.904 18.0867 109.61 17.74 109.237 17.5C108.87 17.26 108.45 17.14 107.977 17.14C107.577 17.14 107.21 17.23 106.877 17.41C106.544 17.59 106.277 17.8533 106.077 18.2C105.877 18.54 105.777 18.9533 105.777 19.44H104.917C104.917 18.42 105.074 17.5867 105.387 16.94C105.7 16.2867 106.12 15.8033 106.647 15.49C107.174 15.1767 107.75 15.02 108.377 15.02C109.144 15.02 109.864 15.2233 110.537 15.63C111.217 16.0367 111.767 16.6233 112.187 17.39C112.607 18.15 112.817 19.0667 112.817 20.14C112.817 21.22 112.604 22.1433 112.177 22.91C111.75 23.6767 111.19 24.2633 110.497 24.67C109.81 25.0767 109.07 25.28 108.277 25.28ZM103.417 29.74V15.3H105.357L105.777 17.7V29.74H103.417ZM115.224 25V15.26H117.584V25H115.224ZM117.004 20.74C117.004 19.4667 117.147 18.4133 117.434 17.58C117.721 16.7467 118.104 16.13 118.584 15.73C119.071 15.3233 119.611 15.12 120.204 15.12C120.364 15.12 120.514 15.13 120.654 15.15C120.801 15.17 120.944 15.2 121.084 15.24L121.044 17.6C120.871 17.56 120.684 17.5267 120.484 17.5C120.284 17.4733 120.104 17.46 119.944 17.46C119.424 17.46 118.987 17.5867 118.634 17.84C118.287 18.0867 118.024 18.4533 117.844 18.94C117.671 19.4267 117.584 20.0267 117.584 20.74H117.004ZM126.496 25.28C125.609 25.28 124.806 25.09 124.086 24.71C123.372 24.33 122.806 23.7633 122.386 23.01C121.966 22.25 121.756 21.3 121.756 20.16C121.756 19 121.966 18.04 122.386 17.28C122.806 16.52 123.372 15.9533 124.086 15.58C124.806 15.2067 125.609 15.02 126.496 15.02C127.369 15.02 128.159 15.2067 128.866 15.58C129.579 15.9533 130.146 16.52 130.566 17.28C130.986 18.04 131.196 19 131.196 20.16C131.196 21.3 130.986 22.25 130.566 23.01C130.146 23.7633 129.579 24.33 128.866 24.71C128.159 25.09 127.369 25.28 126.496 25.28ZM126.416 23.22C126.882 23.22 127.296 23.1067 127.656 22.88C128.022 22.6467 128.309 22.3033 128.516 21.85C128.729 21.3967 128.836 20.8333 128.836 20.16C128.836 19.1333 128.632 18.36 128.226 17.84C127.826 17.32 127.276 17.06 126.576 17.06C126.102 17.06 125.682 17.1767 125.316 17.41C124.949 17.6367 124.659 17.98 124.446 18.44C124.239 18.9 124.136 19.4733 124.136 20.16C124.136 21.1733 124.339 21.9367 124.746 22.45C125.159 22.9633 125.716 23.22 126.416 23.22ZM137.344 30.02C136.23 30.02 135.277 29.8667 134.484 29.56C133.697 29.2533 133.094 28.85 132.674 28.35C132.254 27.8567 132.044 27.32 132.044 26.74C132.044 26.0533 132.294 25.52 132.794 25.14C133.294 24.7667 133.924 24.58 134.684 24.58L136.404 25.22C135.75 25.22 135.247 25.3433 134.894 25.59C134.54 25.8367 134.364 26.18 134.364 26.62C134.364 27.08 134.627 27.4467 135.154 27.72C135.687 28 136.417 28.14 137.344 28.14C138.017 28.14 138.6 28.04 139.094 27.84C139.587 27.64 139.967 27.38 140.234 27.06C140.507 26.74 140.644 26.4 140.644 26.04C140.644 25.8 140.564 25.6033 140.404 25.45C140.244 25.2967 139.997 25.22 139.664 25.22H136.404C135.75 25.22 135.154 25.1167 134.614 24.91C134.08 24.6967 133.654 24.4133 133.334 24.06C133.02 23.7 132.864 23.3 132.864 22.86C132.864 22.4533 132.977 22.1033 133.204 21.81C133.43 21.51 133.737 21.28 134.124 21.12C134.517 20.96 134.957 20.88 135.444 20.88L136.044 21.66C135.85 21.66 135.664 21.7 135.484 21.78C135.31 21.8533 135.167 21.9633 135.054 22.11C134.94 22.2567 134.884 22.44 134.884 22.66C134.884 22.9267 134.997 23.1433 135.224 23.31C135.45 23.4767 135.844 23.56 136.404 23.56H139.664C140.697 23.56 141.507 23.75 142.094 24.13C142.687 24.51 142.984 25.0933 142.984 25.88C142.984 26.58 142.754 27.2433 142.294 27.87C141.834 28.5033 141.18 29.02 140.334 29.42C139.494 29.82 138.497 30.02 137.344 30.02ZM137.464 22C136.697 22 135.994 21.8567 135.354 21.57C134.72 21.2767 134.214 20.87 133.834 20.35C133.454 19.83 133.264 19.22 133.264 18.52C133.264 17.8067 133.454 17.1867 133.834 16.66C134.214 16.1333 134.72 15.73 135.354 15.45C135.994 15.1633 136.697 15.02 137.464 15.02C138.21 15.02 138.9 15.1633 139.534 15.45C140.167 15.73 140.677 16.1333 141.064 16.66C141.45 17.1867 141.644 17.8067 141.644 18.52C141.644 19.22 141.45 19.83 141.064 20.35C140.677 20.87 140.167 21.2767 139.534 21.57C138.9 21.8567 138.21 22 137.464 22ZM137.484 20.36C138.097 20.36 138.557 20.1833 138.864 19.83C139.17 19.4767 139.324 19.04 139.324 18.52C139.324 17.96 139.167 17.51 138.854 17.17C138.547 16.83 138.084 16.66 137.464 16.66C136.864 16.66 136.404 16.83 136.084 17.17C135.764 17.51 135.604 17.96 135.604 18.52C135.604 19.04 135.764 19.4767 136.084 19.83C136.41 20.1833 136.877 20.36 137.484 20.36ZM140.904 16.58L139.824 15.96C139.824 15.38 139.957 14.8733 140.224 14.44C140.497 14 140.857 13.66 141.304 13.42C141.757 13.18 142.257 13.06 142.804 13.06L142.684 15.32C142.104 15.32 141.66 15.4233 141.354 15.63C141.054 15.83 140.904 16.1467 140.904 16.58ZM144.844 25V15.26H147.204V25H144.844ZM146.624 20.74C146.624 19.4667 146.768 18.4133 147.054 17.58C147.341 16.7467 147.724 16.13 148.204 15.73C148.691 15.3233 149.231 15.12 149.824 15.12C149.984 15.12 150.134 15.13 150.274 15.15C150.421 15.17 150.564 15.2 150.704 15.24L150.664 17.6C150.491 17.56 150.304 17.5267 150.104 17.5C149.904 17.4733 149.724 17.46 149.564 17.46C149.044 17.46 148.608 17.5867 148.254 17.84C147.908 18.0867 147.644 18.4533 147.464 18.94C147.291 19.4267 147.204 20.0267 147.204 20.74H146.624ZM155.916 25.28C155.089 25.28 154.333 25.0667 153.646 24.64C152.959 24.2133 152.409 23.6167 151.996 22.85C151.583 22.0767 151.376 21.1733 151.376 20.14C151.376 19.0733 151.579 18.1567 151.986 17.39C152.399 16.6233 152.949 16.0367 153.636 15.63C154.323 15.2233 155.083 15.02 155.916 15.02C156.689 15.02 157.356 15.1767 157.916 15.49C158.483 15.7967 158.936 16.2167 159.276 16.75C159.623 17.2767 159.856 17.8733 159.976 18.54C160.096 19.2067 160.103 19.8933 159.996 20.6H153.256V19.32H158.326L157.866 19.62C157.886 19.3067 157.869 18.99 157.816 18.67C157.769 18.35 157.676 18.0567 157.536 17.79C157.396 17.5233 157.196 17.31 156.936 17.15C156.683 16.9833 156.356 16.9 155.956 16.9C155.476 16.9 155.069 17.02 154.736 17.26C154.403 17.5 154.149 17.8267 153.976 18.24C153.803 18.6533 153.716 19.12 153.716 19.64V20.58C153.716 21.1267 153.796 21.61 153.956 22.03C154.123 22.45 154.366 22.78 154.686 23.02C155.013 23.26 155.423 23.38 155.916 23.38C156.376 23.38 156.763 23.2733 157.076 23.06C157.389 22.8467 157.589 22.5267 157.676 22.1H160.056C159.956 22.7267 159.719 23.28 159.346 23.76C158.979 24.2333 158.503 24.6067 157.916 24.88C157.329 25.1467 156.663 25.28 155.916 25.28ZM166.121 25.28C165.188 25.28 164.385 25.1533 163.711 24.9C163.045 24.64 162.531 24.27 162.171 23.79C161.811 23.3033 161.628 22.72 161.621 22.04H163.801C163.821 22.52 164.011 22.87 164.371 23.09C164.731 23.31 165.221 23.42 165.841 23.42C166.181 23.42 166.481 23.37 166.741 23.27C167.008 23.17 167.215 23.0333 167.361 22.86C167.508 22.6867 167.581 22.4933 167.581 22.28C167.581 22.0067 167.481 21.7933 167.281 21.64C167.088 21.48 166.775 21.3333 166.341 21.2L164.221 20.44C163.461 20.1667 162.878 19.8067 162.471 19.36C162.065 18.9133 161.861 18.38 161.861 17.76C161.861 16.94 162.231 16.28 162.971 15.78C163.718 15.2733 164.715 15.02 165.961 15.02C167.201 15.02 168.158 15.2933 168.831 15.84C169.511 16.38 169.861 17.0667 169.881 17.9H167.661C167.628 17.58 167.475 17.3267 167.201 17.14C166.928 16.9533 166.515 16.86 165.961 16.86C165.461 16.86 165.068 16.9633 164.781 17.17C164.501 17.37 164.361 17.6067 164.361 17.88C164.361 18.34 164.755 18.6867 165.541 18.92L167.841 19.78C168.588 20.0333 169.168 20.36 169.581 20.76C169.995 21.16 170.201 21.6667 170.201 22.28C170.201 22.7933 170.028 23.28 169.681 23.74C169.341 24.1933 168.865 24.5633 168.251 24.85C167.638 25.1367 166.928 25.28 166.121 25.28ZM176.268 25.28C175.335 25.28 174.532 25.1533 173.858 24.9C173.192 24.64 172.678 24.27 172.318 23.79C171.958 23.3033 171.775 22.72 171.768 22.04H173.948C173.968 22.52 174.158 22.87 174.518 23.09C174.878 23.31 175.368 23.42 175.988 23.42C176.328 23.42 176.628 23.37 176.888 23.27C177.155 23.17 177.362 23.0333 177.508 22.86C177.655 22.6867 177.728 22.4933 177.728 22.28C177.728 22.0067 177.628 21.7933 177.428 21.64C177.235 21.48 176.922 21.3333 176.488 21.2L174.368 20.44C173.608 20.1667 173.025 19.8067 172.618 19.36C172.212 18.9133 172.008 18.38 172.008 17.76C172.008 16.94 172.378 16.28 173.118 15.78C173.865 15.2733 174.862 15.02 176.108 15.02C177.348 15.02 178.305 15.2933 178.978 15.84C179.658 16.38 180.008 17.0667 180.028 17.9H177.808C177.775 17.58 177.622 17.3267 177.348 17.14C177.075 16.9533 176.662 16.86 176.108 16.86C175.608 16.86 175.215 16.9633 174.928 17.17C174.648 17.37 174.508 17.6067 174.508 17.88C174.508 18.34 174.902 18.6867 175.688 18.92L177.988 19.78C178.735 20.0333 179.315 20.36 179.728 20.76C180.142 21.16 180.348 21.6667 180.348 22.28C180.348 22.7933 180.175 23.28 179.828 23.74C179.488 24.1933 179.012 24.5633 178.398 24.85C177.785 25.1367 177.075 25.28 176.268 25.28ZM193.634 25L193.334 22.64V18.74C193.334 18.06 193.194 17.5567 192.914 17.23C192.64 16.9033 192.174 16.74 191.514 16.74C191.134 16.74 190.804 16.7967 190.524 16.91C190.244 17.0233 190.027 17.1867 189.874 17.4C189.727 17.6067 189.654 17.86 189.654 18.16H187.074C187.074 17.4267 187.25 16.83 187.604 16.37C187.957 15.9033 188.464 15.5633 189.124 15.35C189.79 15.13 190.587 15.02 191.514 15.02C192.354 15.02 193.087 15.1567 193.714 15.43C194.34 15.6967 194.827 16.11 195.174 16.67C195.52 17.23 195.694 17.9467 195.694 18.82V25H193.634ZM190.454 25.28C189.62 25.28 188.924 25.1367 188.364 24.85C187.81 24.5567 187.394 24.1733 187.114 23.7C186.834 23.2267 186.694 22.7133 186.694 22.16C186.694 21.5467 186.854 21.0333 187.174 20.62C187.5 20.2 187.96 19.8867 188.554 19.68C189.147 19.4667 189.847 19.36 190.654 19.36C191.18 19.36 191.677 19.4 192.144 19.48C192.617 19.56 193.087 19.6667 193.554 19.8V21.18C193.187 21.06 192.787 20.9667 192.354 20.9C191.92 20.8333 191.514 20.8 191.134 20.8C190.574 20.8 190.114 20.9033 189.754 21.11C189.394 21.3167 189.214 21.6667 189.214 22.16C189.214 22.52 189.36 22.83 189.654 23.09C189.947 23.35 190.414 23.48 191.054 23.48C191.54 23.48 191.954 23.3733 192.294 23.16C192.634 22.9467 192.89 22.68 193.064 22.36C193.244 22.04 193.334 21.72 193.334 21.4H193.894C193.894 22.1 193.764 22.7467 193.504 23.34C193.244 23.9267 192.857 24.3967 192.344 24.75C191.837 25.1033 191.207 25.28 190.454 25.28ZM205.413 25V19.32C205.413 18.6 205.24 18.0567 204.893 17.69C204.546 17.3233 204.093 17.14 203.533 17.14C203.06 17.14 202.64 17.27 202.273 17.53C201.913 17.79 201.63 18.1833 201.423 18.71C201.216 19.23 201.113 19.88 201.113 20.66H200.333C200.333 19.4 200.49 18.3533 200.803 17.52C201.116 16.68 201.56 16.0533 202.133 15.64C202.706 15.2267 203.38 15.02 204.153 15.02C204.953 15.02 205.62 15.2 206.153 15.56C206.693 15.9133 207.096 16.4133 207.363 17.06C207.636 17.7067 207.773 18.46 207.773 19.32V25H205.413ZM198.753 25V15.3H200.813L201.113 17.22V25H198.753ZM214.394 25.28C213.581 25.28 212.837 25.0667 212.164 24.64C211.497 24.2067 210.964 23.6033 210.564 22.83C210.171 22.05 209.974 21.14 209.974 20.1C209.974 19.0733 210.164 18.18 210.544 17.42C210.931 16.6533 211.444 16.0633 212.084 15.65C212.731 15.23 213.447 15.02 214.234 15.02C214.954 15.02 215.577 15.1933 216.104 15.54C216.631 15.88 217.034 16.3867 217.314 17.06C217.594 17.7333 217.734 18.56 217.734 19.54H216.994C216.994 19.0333 216.891 18.6033 216.684 18.25C216.477 17.89 216.204 17.6167 215.864 17.43C215.531 17.2367 215.167 17.14 214.774 17.14C214.301 17.14 213.881 17.2633 213.514 17.51C213.154 17.7567 212.871 18.1033 212.664 18.55C212.457 18.99 212.354 19.5067 212.354 20.1C212.354 20.7133 212.457 21.2467 212.664 21.7C212.871 22.1533 213.154 22.5067 213.514 22.76C213.881 23.0133 214.294 23.14 214.754 23.14C215.127 23.14 215.484 23.04 215.824 22.84C216.171 22.6333 216.451 22.3467 216.664 21.98C216.884 21.6133 216.994 21.1867 216.994 20.7H217.734C217.734 21.72 217.581 22.57 217.274 23.25C216.974 23.9233 216.571 24.43 216.064 24.77C215.557 25.11 215.001 25.28 214.394 25.28ZM217.434 25L216.994 22.6V11.28H219.374V25H217.434ZM230.978 25.28C230.151 25.28 229.394 25.0667 228.708 24.64C228.021 24.2133 227.471 23.6167 227.058 22.85C226.644 22.0767 226.438 21.1733 226.438 20.14C226.438 19.0733 226.641 18.1567 227.048 17.39C227.461 16.6233 228.011 16.0367 228.698 15.63C229.384 15.2233 230.144 15.02 230.978 15.02C231.751 15.02 232.418 15.1767 232.978 15.49C233.544 15.7967 233.998 16.2167 234.338 16.75C234.684 17.2767 234.918 17.8733 235.038 18.54C235.158 19.2067 235.164 19.8933 235.058 20.6H228.318V19.32H233.388L232.928 19.62C232.948 19.3067 232.931 18.99 232.878 18.67C232.831 18.35 232.738 18.0567 232.598 17.79C232.458 17.5233 232.258 17.31 231.998 17.15C231.744 16.9833 231.418 16.9 231.018 16.9C230.538 16.9 230.131 17.02 229.798 17.26C229.464 17.5 229.211 17.8267 229.038 18.24C228.864 18.6533 228.778 19.12 228.778 19.64V20.58C228.778 21.1267 228.858 21.61 229.018 22.03C229.184 22.45 229.428 22.78 229.748 23.02C230.074 23.26 230.484 23.38 230.978 23.38C231.438 23.38 231.824 23.2733 232.138 23.06C232.451 22.8467 232.651 22.5267 232.738 22.1H235.118C235.018 22.7267 234.781 23.28 234.408 23.76C234.041 24.2333 233.564 24.6067 232.978 24.88C232.391 25.1467 231.724 25.28 230.978 25.28ZM243.743 25L243.443 22.64V18.74C243.443 18.06 243.303 17.5567 243.023 17.23C242.75 16.9033 242.283 16.74 241.623 16.74C241.243 16.74 240.913 16.7967 240.633 16.91C240.353 17.0233 240.136 17.1867 239.983 17.4C239.836 17.6067 239.763 17.86 239.763 18.16H237.183C237.183 17.4267 237.36 16.83 237.713 16.37C238.066 15.9033 238.573 15.5633 239.233 15.35C239.9 15.13 240.696 15.02 241.623 15.02C242.463 15.02 243.196 15.1567 243.823 15.43C244.45 15.6967 244.936 16.11 245.283 16.67C245.63 17.23 245.803 17.9467 245.803 18.82V25H243.743ZM240.563 25.28C239.73 25.28 239.033 25.1367 238.473 24.85C237.92 24.5567 237.503 24.1733 237.223 23.7C236.943 23.2267 236.803 22.7133 236.803 22.16C236.803 21.5467 236.963 21.0333 237.283 20.62C237.61 20.2 238.07 19.8867 238.663 19.68C239.256 19.4667 239.956 19.36 240.763 19.36C241.29 19.36 241.786 19.4 242.253 19.48C242.726 19.56 243.196 19.6667 243.663 19.8V21.18C243.296 21.06 242.896 20.9667 242.463 20.9C242.03 20.8333 241.623 20.8 241.243 20.8C240.683 20.8 240.223 20.9033 239.863 21.11C239.503 21.3167 239.323 21.6667 239.323 22.16C239.323 22.52 239.47 22.83 239.763 23.09C240.056 23.35 240.523 23.48 241.163 23.48C241.65 23.48 242.063 23.3733 242.403 23.16C242.743 22.9467 243 22.68 243.173 22.36C243.353 22.04 243.443 21.72 243.443 21.4H244.003C244.003 22.1 243.873 22.7467 243.613 23.34C243.353 23.9267 242.966 24.3967 242.453 24.75C241.946 25.1033 241.316 25.28 240.563 25.28ZM248.862 25V15.26H251.222V25H248.862ZM250.642 20.74C250.642 19.4667 250.786 18.4133 251.072 17.58C251.359 16.7467 251.742 16.13 252.222 15.73C252.709 15.3233 253.249 15.12 253.842 15.12C254.002 15.12 254.152 15.13 254.292 15.15C254.439 15.17 254.582 15.2 254.722 15.24L254.682 17.6C254.509 17.56 254.322 17.5267 254.122 17.5C253.922 17.4733 253.742 17.46 253.582 17.46C253.062 17.46 252.626 17.5867 252.272 17.84C251.926 18.0867 251.662 18.4533 251.482 18.94C251.309 19.4267 251.222 20.0267 251.222 20.74H250.642ZM262.974 25V19.32C262.974 18.6 262.801 18.0567 262.454 17.69C262.107 17.3233 261.654 17.14 261.094 17.14C260.621 17.14 260.201 17.27 259.834 17.53C259.474 17.79 259.191 18.1833 258.984 18.71C258.777 19.23 258.674 19.88 258.674 20.66H257.894C257.894 19.4 258.051 18.3533 258.364 17.52C258.677 16.68 259.121 16.0533 259.694 15.64C260.267 15.2267 260.941 15.02 261.714 15.02C262.514 15.02 263.181 15.2 263.714 15.56C264.254 15.9133 264.657 16.4133 264.924 17.06C265.197 17.7067 265.334 18.46 265.334 19.32V25H262.974ZM256.314 25V15.3H258.374L258.674 17.22V25H256.314ZM277.993 25.28C277.387 25.28 276.83 25.11 276.323 24.77C275.823 24.43 275.423 23.9233 275.123 23.25C274.823 22.57 274.673 21.72 274.673 20.7H275.393C275.393 21.1867 275.503 21.6133 275.723 21.98C275.943 22.3467 276.227 22.6333 276.573 22.84C276.92 23.04 277.28 23.14 277.653 23.14C278.113 23.14 278.523 23.0133 278.883 22.76C279.243 22.5067 279.527 22.1533 279.733 21.7C279.947 21.2467 280.053 20.7133 280.053 20.1C280.053 19.5067 279.95 18.99 279.743 18.55C279.537 18.1033 279.25 17.7567 278.883 17.51C278.523 17.2633 278.107 17.14 277.633 17.14C277.24 17.14 276.873 17.2367 276.533 17.43C276.193 17.6167 275.917 17.89 275.703 18.25C275.497 18.6033 275.393 19.0333 275.393 19.54H274.673C274.673 18.56 274.813 17.7333 275.093 17.06C275.38 16.3867 275.783 15.88 276.303 15.54C276.83 15.1933 277.453 15.02 278.173 15.02C278.96 15.02 279.673 15.23 280.313 15.65C280.96 16.0633 281.473 16.6533 281.853 17.42C282.24 18.18 282.433 19.0733 282.433 20.1C282.433 21.14 282.233 22.05 281.833 22.83C281.44 23.6033 280.907 24.2067 280.233 24.64C279.56 25.0667 278.813 25.28 277.993 25.28ZM273.033 25V11.28H275.393V22.6L274.573 25H273.033ZM291.099 25L290.799 22.64V18.74C290.799 18.06 290.659 17.5567 290.379 17.23C290.105 16.9033 289.639 16.74 288.979 16.74C288.599 16.74 288.269 16.7967 287.989 16.91C287.709 17.0233 287.492 17.1867 287.339 17.4C287.192 17.6067 287.119 17.86 287.119 18.16H284.539C284.539 17.4267 284.715 16.83 285.069 16.37C285.422 15.9033 285.929 15.5633 286.589 15.35C287.255 15.13 288.052 15.02 288.979 15.02C289.819 15.02 290.552 15.1567 291.179 15.43C291.805 15.6967 292.292 16.11 292.639 16.67C292.985 17.23 293.159 17.9467 293.159 18.82V25H291.099ZM287.919 25.28C287.085 25.28 286.389 25.1367 285.829 24.85C285.275 24.5567 284.859 24.1733 284.579 23.7C284.299 23.2267 284.159 22.7133 284.159 22.16C284.159 21.5467 284.319 21.0333 284.639 20.62C284.965 20.2 285.425 19.8867 286.019 19.68C286.612 19.4667 287.312 19.36 288.119 19.36C288.645 19.36 289.142 19.4 289.609 19.48C290.082 19.56 290.552 19.6667 291.019 19.8V21.18C290.652 21.06 290.252 20.9667 289.819 20.9C289.385 20.8333 288.979 20.8 288.599 20.8C288.039 20.8 287.579 20.9033 287.219 21.11C286.859 21.3167 286.679 21.6667 286.679 22.16C286.679 22.52 286.825 22.83 287.119 23.09C287.412 23.35 287.879 23.48 288.519 23.48C289.005 23.48 289.419 23.3733 289.759 23.16C290.099 22.9467 290.355 22.68 290.529 22.36C290.709 22.04 290.799 21.72 290.799 21.4H291.359C291.359 22.1 291.229 22.7467 290.969 23.34C290.709 23.9267 290.322 24.3967 289.809 24.75C289.302 25.1033 288.672 25.28 287.919 25.28ZM299.798 25.28C298.984 25.28 298.241 25.0667 297.568 24.64C296.901 24.2067 296.368 23.6033 295.968 22.83C295.574 22.05 295.378 21.14 295.378 20.1C295.378 19.0733 295.568 18.18 295.948 17.42C296.334 16.6533 296.848 16.0633 297.488 15.65C298.134 15.23 298.851 15.02 299.638 15.02C300.358 15.02 300.981 15.1933 301.508 15.54C302.034 15.88 302.438 16.3867 302.718 17.06C302.998 17.7333 303.138 18.56 303.138 19.54H302.398C302.398 19.0333 302.294 18.6033 302.088 18.25C301.881 17.89 301.608 17.6167 301.268 17.43C300.934 17.2367 300.571 17.14 300.178 17.14C299.704 17.14 299.284 17.2633 298.918 17.51C298.558 17.7567 298.274 18.1033 298.068 18.55C297.861 18.99 297.758 19.5067 297.758 20.1C297.758 20.7133 297.861 21.2467 298.068 21.7C298.274 22.1533 298.558 22.5067 298.918 22.76C299.284 23.0133 299.698 23.14 300.158 23.14C300.531 23.14 300.888 23.04 301.228 22.84C301.574 22.6333 301.854 22.3467 302.068 21.98C302.288 21.6133 302.398 21.1867 302.398 20.7H303.138C303.138 21.72 302.984 22.57 302.678 23.25C302.378 23.9233 301.974 24.43 301.468 24.77C300.961 25.11 300.404 25.28 299.798 25.28ZM302.838 25L302.398 22.6V11.28H304.778V25H302.838ZM311.843 30.02C310.73 30.02 309.776 29.8667 308.983 29.56C308.196 29.2533 307.593 28.85 307.173 28.35C306.753 27.8567 306.543 27.32 306.543 26.74C306.543 26.0533 306.793 25.52 307.293 25.14C307.793 24.7667 308.423 24.58 309.183 24.58L310.903 25.22C310.25 25.22 309.746 25.3433 309.393 25.59C309.04 25.8367 308.863 26.18 308.863 26.62C308.863 27.08 309.126 27.4467 309.653 27.72C310.186 28 310.916 28.14 311.843 28.14C312.516 28.14 313.1 28.04 313.593 27.84C314.086 27.64 314.466 27.38 314.733 27.06C315.006 26.74 315.143 26.4 315.143 26.04C315.143 25.8 315.063 25.6033 314.903 25.45C314.743 25.2967 314.496 25.22 314.163 25.22H310.903C310.25 25.22 309.653 25.1167 309.113 24.91C308.58 24.6967 308.153 24.4133 307.833 24.06C307.52 23.7 307.363 23.3 307.363 22.86C307.363 22.4533 307.476 22.1033 307.703 21.81C307.93 21.51 308.236 21.28 308.623 21.12C309.016 20.96 309.456 20.88 309.943 20.88L310.543 21.66C310.35 21.66 310.163 21.7 309.983 21.78C309.81 21.8533 309.666 21.9633 309.553 22.11C309.44 22.2567 309.383 22.44 309.383 22.66C309.383 22.9267 309.496 23.1433 309.723 23.31C309.95 23.4767 310.343 23.56 310.903 23.56H314.163C315.196 23.56 316.006 23.75 316.593 24.13C317.186 24.51 317.483 25.0933 317.483 25.88C317.483 26.58 317.253 27.2433 316.793 27.87C316.333 28.5033 315.68 29.02 314.833 29.42C313.993 29.82 312.996 30.02 311.843 30.02ZM311.963 22C311.196 22 310.493 21.8567 309.853 21.57C309.22 21.2767 308.713 20.87 308.333 20.35C307.953 19.83 307.763 19.22 307.763 18.52C307.763 17.8067 307.953 17.1867 308.333 16.66C308.713 16.1333 309.22 15.73 309.853 15.45C310.493 15.1633 311.196 15.02 311.963 15.02C312.71 15.02 313.4 15.1633 314.033 15.45C314.666 15.73 315.176 16.1333 315.563 16.66C315.95 17.1867 316.143 17.8067 316.143 18.52C316.143 19.22 315.95 19.83 315.563 20.35C315.176 20.87 314.666 21.2767 314.033 21.57C313.4 21.8567 312.71 22 311.963 22ZM311.983 20.36C312.596 20.36 313.056 20.1833 313.363 19.83C313.67 19.4767 313.823 19.04 313.823 18.52C313.823 17.96 313.666 17.51 313.353 17.17C313.046 16.83 312.583 16.66 311.963 16.66C311.363 16.66 310.903 16.83 310.583 17.17C310.263 17.51 310.103 17.96 310.103 18.52C310.103 19.04 310.263 19.4767 310.583 19.83C310.91 20.1833 311.376 20.36 311.983 20.36ZM315.403 16.58L314.323 15.96C314.323 15.38 314.456 14.8733 314.723 14.44C314.996 14 315.356 13.66 315.803 13.42C316.256 13.18 316.756 13.06 317.303 13.06L317.183 15.32C316.603 15.32 316.16 15.4233 315.853 15.63C315.553 15.83 315.403 16.1467 315.403 16.58ZM322.964 25.28C322.137 25.28 321.38 25.0667 320.694 24.64C320.007 24.2133 319.457 23.6167 319.044 22.85C318.63 22.0767 318.424 21.1733 318.424 20.14C318.424 19.0733 318.627 18.1567 319.034 17.39C319.447 16.6233 319.997 16.0367 320.684 15.63C321.37 15.2233 322.13 15.02 322.964 15.02C323.737 15.02 324.404 15.1767 324.964 15.49C325.53 15.7967 325.984 16.2167 326.324 16.75C326.67 17.2767 326.904 17.8733 327.024 18.54C327.144 19.2067 327.15 19.8933 327.044 20.6H320.304V19.32H325.374L324.914 19.62C324.934 19.3067 324.917 18.99 324.864 18.67C324.817 18.35 324.724 18.0567 324.584 17.79C324.444 17.5233 324.244 17.31 323.984 17.15C323.73 16.9833 323.404 16.9 323.004 16.9C322.524 16.9 322.117 17.02 321.784 17.26C321.45 17.5 321.197 17.8267 321.024 18.24C320.85 18.6533 320.764 19.12 320.764 19.64V20.58C320.764 21.1267 320.844 21.61 321.004 22.03C321.17 22.45 321.414 22.78 321.734 23.02C322.06 23.26 322.47 23.38 322.964 23.38C323.424 23.38 323.81 23.2733 324.124 23.06C324.437 22.8467 324.637 22.5267 324.724 22.1H327.104C327.004 22.7267 326.767 23.28 326.394 23.76C326.027 24.2333 325.55 24.6067 324.964 24.88C324.377 25.1467 323.71 25.28 322.964 25.28ZM333.169 25.28C332.236 25.28 331.432 25.1533 330.759 24.9C330.092 24.64 329.579 24.27 329.219 23.79C328.859 23.3033 328.676 22.72 328.669 22.04H330.849C330.869 22.52 331.059 22.87 331.419 23.09C331.779 23.31 332.269 23.42 332.889 23.42C333.229 23.42 333.529 23.37 333.789 23.27C334.056 23.17 334.262 23.0333 334.409 22.86C334.556 22.6867 334.629 22.4933 334.629 22.28C334.629 22.0067 334.529 21.7933 334.329 21.64C334.136 21.48 333.822 21.3333 333.389 21.2L331.269 20.44C330.509 20.1667 329.926 19.8067 329.519 19.36C329.112 18.9133 328.909 18.38 328.909 17.76C328.909 16.94 329.279 16.28 330.019 15.78C330.766 15.2733 331.762 15.02 333.009 15.02C334.249 15.02 335.206 15.2933 335.879 15.84C336.559 16.38 336.909 17.0667 336.929 17.9H334.709C334.676 17.58 334.522 17.3267 334.249 17.14C333.976 16.9533 333.562 16.86 333.009 16.86C332.509 16.86 332.116 16.9633 331.829 17.17C331.549 17.37 331.409 17.6067 331.409 17.88C331.409 18.34 331.802 18.6867 332.589 18.92L334.889 19.78C335.636 20.0333 336.216 20.36 336.629 20.76C337.042 21.16 337.249 21.6667 337.249 22.28C337.249 22.7933 337.076 23.28 336.729 23.74C336.389 24.1933 335.912 24.5633 335.299 24.85C334.686 25.1367 333.976 25.28 333.169 25.28Z" fill="#DDDDDD"/>
</svg>
