<?xml version="1.0" encoding="UTF-8"?>
<svg width="817px" height="244px" viewBox="0 0 817 244" version="1.1" xmlns="http://www.w3.org/2000/svg" xmlns:xlink="http://www.w3.org/1999/xlink">
    <!-- Generator: Sketch 57.1 (83088) - https://sketch.com -->
    <title>Fill 1</title>
    <desc>Created with Sketch.</desc>
    <g id="Page-1" stroke="none" stroke-width="1" fill="none" fill-rule="evenodd">
        <g id="FA_SANTANDER_UNIVERSITIES_CV_POS_RGB" transform="translate(-150.000000, -113.000000)" fill="#EC0000">
            <path d="M966.225,177.15 C966.225,181.805 965.661,187.448 964.813,190.41 C961.147,189.986 957.479,189.846 953.106,189.846 C949.299,189.846 945.49,190.128 941.683,190.691 L941.683,251.06 L926.166,251.06 L926.166,180.536 C932.796,178.279 943.939,176.587 952.684,176.587 C957.479,176.587 962.84,176.727 966.225,177.15 Z M862.127,207.899 L897.107,207.899 C897.107,196.333 890.901,189.563 880.182,189.563 C869.18,189.563 863.396,195.91 862.127,207.899 Z M911.917,220.877 L862.409,220.877 C864.384,233.43 871.718,239.495 885.541,239.495 C894.004,239.495 902.608,237.661 910.365,234.135 C909.802,238.225 908.956,243.585 907.968,248.239 C900.915,251.484 893.439,252.753 885.118,252.753 C859.165,252.753 846.612,238.366 846.612,214.247 C846.612,193.23 856.345,176.587 881.027,176.587 C903.172,176.587 912.764,191.114 912.764,208.888 C912.764,213.261 912.481,216.786 911.917,220.877 Z M818.539,234.699 L818.539,191.256 C814.449,190.41 810.218,189.846 806.127,189.846 C790.753,189.846 783.419,199.437 783.419,215.517 C783.419,229.904 789.201,240.059 803.024,240.059 C809.229,240.059 814.309,237.943 818.539,234.699 Z M833.914,152.326 L833.914,251.06 L819.668,251.06 L818.822,242.034 C814.872,248.663 808.807,252.753 798.651,252.753 C780.033,252.753 767.621,239.212 767.621,215.517 C767.621,190.691 780.88,176.587 806.974,176.587 C811.063,176.587 814.872,177.01 818.539,177.716 L818.539,154.442 C823.335,152.749 828.836,152.326 833.914,152.326 Z M755.204,203.669 L755.204,251.06 L739.689,251.06 L739.689,206.348 C739.689,195.206 736.021,189.846 720.507,189.846 C716.839,189.846 712.466,190.268 708.235,190.973 L708.235,251.06 L692.72,251.06 L692.72,180.536 C702.593,178.138 713.454,176.587 720.93,176.587 C746.883,176.587 755.204,186.6 755.204,203.669 Z M660.274,234.981 L660.274,190.691 C657.031,190.128 653.504,189.846 649.133,189.846 C633.053,189.846 625.577,199.72 625.577,215.517 C625.577,229.904 631.36,240.059 645.183,240.059 C651.247,240.059 656.186,238.085 660.274,234.981 Z M675.791,180.536 L675.791,251.06 L661.545,251.06 L660.699,242.598 C656.749,248.804 650.684,252.753 640.811,252.753 C622.191,252.753 609.78,239.212 609.78,215.517 C609.78,190.691 623.038,176.587 649.133,176.587 C659.288,176.587 667.609,177.716 675.791,180.536 Z M592.568,239.495 C597.081,239.495 601.313,238.648 604.698,237.38 C604.275,241.61 603.711,246.407 602.864,250.496 C598.634,252.189 594.12,252.753 589.747,252.753 C574.655,252.753 565.063,245.842 565.063,228.634 L565.063,154.583 C569.859,153.031 575.783,152.326 580.579,152.326 L580.579,178.984 L605.121,178.984 C604.84,183.78 604.417,188.153 603.711,192.243 L580.579,192.243 L580.579,226.801 C580.579,235.969 585.093,239.495 592.568,239.495 Z M549.544,203.669 L549.544,251.06 L534.029,251.06 L534.029,206.348 C534.029,195.206 530.361,189.846 514.847,189.846 C511.179,189.846 506.807,190.268 502.574,190.973 L502.574,251.06 L487.06,251.06 L487.06,180.536 C496.933,178.138 507.794,176.587 515.27,176.587 C541.223,176.587 549.544,186.6 549.544,203.669 Z M454.615,234.981 L454.615,190.691 C451.371,190.128 447.845,189.846 443.472,189.846 C427.393,189.846 419.917,199.72 419.917,215.517 C419.917,229.904 425.7,240.059 439.522,240.059 C445.588,240.059 450.524,238.085 454.615,234.981 Z M470.131,180.536 L470.131,251.06 L455.885,251.06 L455.038,242.598 C451.089,248.804 445.023,252.753 435.15,252.753 C416.532,252.753 404.119,239.212 404.119,215.517 C404.119,190.691 417.378,176.587 443.472,176.587 C453.628,176.587 461.949,177.716 470.131,180.536 Z M329.219,247.958 C329.501,242.175 330.347,238.225 331.898,233.712 C339.797,237.38 349.953,239.212 357.711,239.212 C370.828,239.212 378.163,234.981 378.163,226.659 C378.163,218.478 372.803,214.67 359.544,208.888 L352.351,205.784 C339.092,200.001 330.065,192.525 330.065,177.574 C330.065,161.495 341.208,151.198 364.058,151.198 C373.226,151.198 381.83,152.468 389.87,155.288 C389.447,160.93 388.459,165.303 387.049,169.393 C379.432,166.572 370.405,165.303 363.917,165.303 C351.646,165.303 346.003,170.099 346.003,177.574 C346.003,184.909 351.504,189.139 361.378,193.372 L368.995,196.616 C386.908,204.233 394.383,212.272 394.383,225.954 C394.383,242.175 382.112,253.317 358.134,253.317 C346.568,253.317 337.118,251.626 329.219,247.958 Z M258.323,178.419 C258.099,173.27 256.658,168.162 253.993,163.546 L230.479,122.819 C228.686,119.714 227.447,116.386 226.759,112.972 L225.777,114.675 C219.957,124.755 219.957,137.174 225.776,147.254 L244.587,179.836 C250.407,189.916 250.407,202.336 244.587,212.416 L243.604,214.118 C242.917,210.705 241.678,207.377 239.885,204.271 L211.668,155.399 C209.875,152.294 208.637,148.966 207.949,145.553 L206.966,147.255 C201.166,157.302 201.148,169.67 206.909,179.732 L206.907,179.733 L225.777,212.416 C231.597,222.496 231.597,234.916 225.777,244.997 L224.794,246.699 C224.106,243.286 222.868,239.958 221.075,236.852 L197.561,196.126 C194.408,190.664 192.967,184.514 193.23,178.424 C168.059,185 150.686,198.964 150.686,215.131 C150.686,237.623 184.305,255.857 225.777,255.857 C267.249,255.857 300.868,237.623 300.868,215.131 C300.868,198.963 283.496,184.995 258.323,178.419 Z M752.03,352.4 C752.126,349.726 752.508,347.911 752.985,346.574 C757.475,349.152 763.684,350.299 768.556,350.299 C775.91,350.299 780.399,348.006 780.399,342.562 C780.399,336.83 775.146,334.824 770.562,333.392 L766.167,332.055 C757.666,329.475 752.985,325.178 752.985,317.535 C752.985,309.034 759.481,304.545 770.274,304.545 C775.814,304.545 780.973,305.308 785.367,307.028 C785.271,308.652 784.984,310.754 784.412,312.664 C780.018,311.04 775.146,310.276 770.466,310.276 C763.11,310.276 759.386,312.664 759.386,317.345 C759.386,322.693 763.11,324.317 769.033,326.323 L773.522,327.851 C781.068,330.43 786.896,334.06 786.896,342.371 C786.896,351.062 780.209,356.126 768.746,356.126 C762.06,356.126 756.52,354.979 752.03,352.4 Z M708.187,326.609 L737.225,326.609 L737.225,326.228 C737.225,316.771 732.64,310.371 723.184,310.371 C713.632,310.371 708.951,316.676 708.187,326.609 Z M743.529,332.628 L708.187,332.628 C709.047,344.09 715.064,350.203 725.954,350.203 C731.111,350.203 736.843,349.056 742.001,346.096 C741.81,347.815 741.428,350.394 740.95,352.496 C736.175,355.265 731.207,356.126 725.763,356.126 C709.811,356.126 701.405,346.478 701.405,330.049 C701.405,315.816 707.805,304.545 723.47,304.545 C737.798,304.545 743.911,314.383 743.911,326.705 C743.911,328.711 743.816,330.717 743.529,332.628 Z M684.689,354.979 L691.376,354.979 L691.376,305.691 L684.689,305.691 L684.689,354.979 Z M683.543,293.56 C683.543,290.98 685.453,289.07 688.032,289.07 C690.611,289.07 692.427,290.98 692.427,293.56 C692.427,296.138 690.611,297.954 688.032,297.954 C685.453,297.954 683.543,296.138 683.543,293.56 Z M675.425,348.866 C675.233,350.681 674.947,352.783 674.565,354.597 C671.699,355.648 668.93,356.126 665.969,356.126 C656.799,356.126 651.163,351.541 651.163,340.843 L651.163,289.357 C653.169,288.688 655.843,288.306 657.849,288.306 L657.849,305.977 L675.139,305.977 C675.043,308.269 674.852,310.18 674.47,311.996 L657.849,311.996 L657.849,340.078 C657.849,347.338 661.192,350.394 667.114,350.394 C669.789,350.394 672.846,349.821 675.425,348.866 Z M632.059,354.979 L638.745,354.979 L638.745,305.691 L632.059,305.691 L632.059,354.979 Z M630.913,293.56 C630.913,290.98 632.823,289.07 635.402,289.07 C637.981,289.07 639.796,290.98 639.796,293.56 C639.796,296.138 637.981,297.954 635.402,297.954 C632.823,297.954 630.913,296.138 630.913,293.56 Z M587.452,352.4 C587.547,349.726 587.93,347.911 588.407,346.574 C592.896,349.152 599.105,350.299 603.977,350.299 C611.332,350.299 615.821,348.006 615.821,342.562 C615.821,336.83 610.567,334.824 605.982,333.392 L601.589,332.055 C593.088,329.475 588.407,325.178 588.407,317.535 C588.407,309.034 594.902,304.545 605.696,304.545 C611.236,304.545 616.395,305.308 620.788,307.028 C620.692,308.652 620.406,310.754 619.833,312.664 C615.439,311.04 610.567,310.276 605.887,310.276 C598.532,310.276 594.807,312.664 594.807,317.345 C594.807,322.693 598.532,324.317 604.454,326.323 L608.943,327.851 C616.49,330.43 622.316,334.06 622.316,342.371 C622.316,351.062 615.63,356.126 604.168,356.126 C597.481,356.126 591.941,354.979 587.452,352.4 Z M582.484,305.118 C582.484,307.124 582.198,309.607 581.816,310.849 C579.619,310.562 577.136,310.467 574.461,310.467 C571.69,310.467 568.252,310.849 565.1,311.517 L565.1,354.979 L558.413,354.979 L558.413,307.22 C562.616,305.787 569.111,304.736 574.27,304.736 C577.422,304.736 580.383,304.832 582.484,305.118 Z M512.182,326.609 L541.22,326.609 L541.22,326.228 C541.22,316.771 536.635,310.371 527.179,310.371 C517.627,310.371 512.946,316.676 512.182,326.609 Z M547.524,332.628 L512.182,332.628 C513.042,344.09 519.06,350.203 529.949,350.203 C535.106,350.203 540.838,349.056 545.996,346.096 C545.805,347.815 545.423,350.394 544.945,352.496 C540.17,355.265 535.202,356.126 529.758,356.126 C513.806,356.126 505.4,346.478 505.4,330.049 C505.4,315.816 511.8,304.545 527.465,304.545 C541.793,304.545 547.906,314.383 547.906,326.705 C547.906,328.711 547.812,330.717 547.524,332.628 Z M502.917,305.691 L484.672,354.979 L476.362,354.979 L457.927,305.691 L465.187,305.691 L480.66,348.484 L495.753,305.691 L502.917,305.691 Z M444.076,354.979 L450.763,354.979 L450.763,305.691 L444.076,305.691 L444.076,354.979 Z M442.931,293.56 C442.931,290.98 444.841,289.07 447.42,289.07 C449.999,289.07 451.813,290.98 451.813,293.56 C451.813,296.138 449.999,297.954 447.42,297.954 C444.841,297.954 442.931,296.138 442.931,293.56 Z M431.659,322.693 L431.659,354.979 L424.973,354.979 L424.973,323.935 C424.973,315.053 421.63,310.467 409.881,310.467 C406.441,310.467 402.43,310.945 398.801,311.805 L398.801,354.979 L392.114,354.979 L392.114,307.22 C398.514,305.5 404.723,304.545 410.071,304.545 C426.215,304.545 431.659,311.136 431.659,322.693 Z M378.168,288.306 L378.168,332.818 C378.168,346.096 369.667,356.316 353.715,356.316 C337.667,356.316 329.167,346.096 329.167,332.818 L329.167,289.357 C330.886,288.88 333.751,288.306 335.853,288.306 L335.853,331.863 C335.853,342.753 342.444,350.013 353.715,350.013 C365.177,350.013 371.482,342.753 371.482,332.15 L371.482,289.357 C373.201,288.88 376.067,288.306 378.168,288.306 L378.168,288.306 Z" id="Fill-1"></path>
        </g>
    </g>
</svg>